<?xml version="1.0" standalone="no"?>
<!DOCTYPE svg PUBLIC "-//W3C//DTD SVG 20010904//EN"
 "http://www.w3.org/TR/2001/REC-SVG-20010904/DTD/svg10.dtd">
<svg version="1.0" xmlns="http://www.w3.org/2000/svg"
 width="700.000000pt" height="700.000000pt" viewBox="0 0 700.000000 700.000000"
 preserveAspectRatio="xMidYMid meet">
<metadata>
Created by potrace 1.14, written by Peter Selinger 2001-2017
</metadata>
<g transform="translate(0.000000,700.000000) scale(0.100000,-0.100000)"
fill="#000000" stroke="none">
<path d="M445 6990 c-194 -40 -352 -179 -417 -368 l-23 -67 0 -3055 0 -3055
23 -67 c30 -87 85 -171 153 -233 71 -65 139 -101 235 -125 76 -20 121 -20
3084 -20 2963 0 3008 0 3084 20 107 27 169 63 251 145 82 82 118 144 145 251
20 76 20 121 20 3084 0 2963 0 3008 -20 3084 -46 181 -167 314 -348 385 l-67
26 -3040 1 c-1672 1 -3058 -2 -3080 -6z m2015 -1625 l0 -85 -350 0 -350 0 0
-235 0 -235 310 0 310 0 0 -85 0 -85 -310 0 -310 0 0 -350 0 -350 -105 0 -105
0 0 755 0 755 455 0 455 0 0 -85z m470 -580 l0 -665 350 0 350 0 0 -90 0 -90
-450 0 -450 0 0 755 0 755 100 0 100 0 0 -665z m1140 -90 l0 -755 -105 0 -105
0 0 755 0 755 105 0 105 0 0 -755z m687 475 c102 -154 189 -280 192 -280 3 0
87 125 186 276 99 152 184 278 190 281 6 2 59 2 118 1 l106 -3 -235 -348 -236
-349 160 -236 c156 -234 243 -372 315 -504 l37 -68 -114 0 -114 0 -68 122
c-63 113 -295 470 -331 510 -15 16 -22 9 -100 -105 -98 -142 -222 -339 -282
-450 l-43 -77 -110 0 c-101 0 -110 1 -103 17 21 58 154 274 312 510 l181 272
-222 328 c-122 181 -231 340 -240 356 l-18 27 116 0 116 0 187 -280z m598
-2225 c33 -8 98 -34 145 -57 165 -80 292 -242 350 -448 27 -95 38 -311 21
-420 -15 -95 -59 -224 -102 -298 -51 -86 -171 -201 -256 -245 -111 -58 -206
-79 -348 -79 -314 0 -547 153 -661 432 -42 105 -57 193 -57 350 0 265 63 438
214 589 103 103 207 156 364 187 85 16 245 11 330 -11z m-3975 -765 l0 -750
-100 0 -100 0 0 750 0 750 100 0 100 0 0 -750z m585 713 c139 -146 513 -639
699 -921 l101 -154 3 556 2 556 100 0 100 0 0 -750 0 -751 -86 3 -87 3 -86
140 c-226 367 -688 1007 -738 1023 -10 3 -13 -118 -13 -582 l0 -586 -95 0 -95
0 0 750 0 750 80 0 c79 0 80 0 115 -37z m2295 -48 l0 -85 -350 0 -350 0 0
-230 0 -230 310 0 310 0 0 -90 0 -90 -310 0 -310 0 0 -345 0 -345 -100 0 -100
0 0 750 0 750 450 0 450 0 0 -85z"/>
<path d="M5031 2774 c-173 -46 -291 -174 -348 -375 -25 -91 -25 -347 0 -438
62 -221 198 -351 400 -383 253 -39 457 90 543 342 45 133 48 357 8 497 -55
190 -191 326 -362 362 -71 15 -175 13 -241 -5z"/>
</g>
</svg>
