<?xml version="1.0" standalone="no"?>
<!DOCTYPE svg PUBLIC "-//W3C//DTD SVG 20010904//EN"
 "http://www.w3.org/TR/2001/REC-SVG-20010904/DTD/svg10.dtd">
<svg version="1.0" xmlns="http://www.w3.org/2000/svg"
 width="700.000000pt" height="700.000000pt" viewBox="0 0 700.000000 700.000000"
 preserveAspectRatio="xMidYMid meet">
<metadata>
Created by potrace 1.14, written by Peter Selinger 2001-2017
</metadata>
<g transform="translate(0.000000,700.000000) scale(0.100000,-0.100000)"
fill="#000000" stroke="none">
<path d="M525 6985 c-96 -21 -168 -52 -241 -104 -120 -84 -205 -197 -252 -335
l-27 -81 0 -2965 0 -2965 28 -82 c68 -202 232 -361 437 -425 l75 -23 2960 0
2960 0 82 28 c197 67 353 223 421 421 l27 81 0 2965 0 2965 -27 81 c-68 198
-224 354 -421 421 l-82 28 -2940 2 c-2412 1 -2951 -1 -3000 -12z m1725 -1230
l0 -105 -420 0 -420 0 0 -275 0 -275 375 0 375 0 0 -105 0 -105 -375 0 -375 0
0 -420 0 -420 -125 0 -125 0 0 905 0 905 545 0 545 0 0 -105z m570 -695 l0
-800 420 0 420 0 0 -105 0 -105 -545 0 -545 0 0 905 0 905 125 0 125 0 0 -800z
m1360 -105 l0 -905 -120 0 -120 0 0 905 0 905 120 0 120 0 0 -905z m829 570
c122 -184 225 -335 229 -335 4 0 105 151 225 335 l219 335 140 0 c109 0 138
-3 132 -12 -5 -7 -129 -192 -276 -410 -147 -218 -271 -403 -274 -411 -3 -9 50
-96 135 -219 199 -289 461 -716 461 -750 0 -5 -60 -8 -134 -8 l-134 0 -50 93
c-120 220 -424 681 -445 674 -27 -9 -337 -487 -443 -681 l-46 -86 -134 0 c-74
0 -134 2 -134 4 0 9 123 227 193 341 68 112 219 339 367 551 l42 62 -286 421
c-157 231 -286 423 -286 426 0 3 62 5 139 5 l139 0 221 -335z m711 -2656 c47
-11 128 -41 180 -67 82 -39 108 -60 190 -142 179 -179 256 -370 267 -665 19
-498 -223 -861 -642 -966 -170 -42 -395 -26 -565 41 -369 145 -569 556 -509
1045 35 288 179 527 397 659 188 114 447 150 682 95z m-4760 -924 l0 -905
-125 0 -125 0 0 905 0 905 125 0 125 0 0 -905z m736 818 c225 -257 562 -704
790 -1048 l139 -209 3 672 2 672 120 0 120 0 0 -905 0 -905 -102 0 -103 1
-139 223 c-221 355 -546 816 -767 1087 l-94 114 -3 -712 -2 -713 -120 0 -120
0 0 905 0 905 100 0 99 0 77 -87z m2724 -18 l0 -105 -425 0 -425 0 0 -275 0
-275 375 0 375 0 0 -105 0 -105 -375 0 -375 0 0 -420 0 -420 -120 0 -120 0 0
905 0 905 545 0 545 0 0 -105z"/>
<path d="M5346 2664 c-190 -46 -336 -187 -407 -391 -63 -184 -63 -462 0 -646
51 -146 156 -280 268 -340 164 -87 414 -87 574 0 223 121 349 440 310 784 -44
383 -269 611 -601 608 -47 0 -112 -7 -144 -15z"/>
</g>
</svg>
